<svg width="36" height="38" viewBox="0 0 36 38" fill="none" xmlns="http://www.w3.org/2000/svg">
<rect y="0.25" width="35.5599" height="37.5" rx="7" fill="#1C1C1C" style="fill:#1C1C1C;fill:color(display-p3 0.1098 0.1098 0.1098);fill-opacity:1;"/>
<path d="M10.6494 27.75C10.4829 27.75 10.333 27.6917 10.1998 27.575C10.0666 27.4417 10 27.2833 10 27.1V10.9C10 10.7167 10.0666 10.5667 10.1998 10.45C10.333 10.3167 10.4829 10.25 10.6494 10.25H18.6166C20.1318 10.25 21.3723 10.45 22.338 10.85C23.3038 11.25 24.0197 11.825 24.486 12.575C24.9522 13.325 25.1853 14.25 25.1853 15.35C25.1853 15.9167 25.0687 16.425 24.8356 16.875C24.6192 17.3083 24.3528 17.675 24.0364 17.975C23.72 18.2583 23.4203 18.4667 23.1373 18.6C23.7866 18.8833 24.3528 19.3667 24.8356 20.05C25.3185 20.7167 25.5599 21.4833 25.5599 22.35C25.5599 23.5167 25.2935 24.5 24.7607 25.3C24.2445 26.1 23.4869 26.7083 22.4879 27.125C21.5055 27.5417 20.2984 27.75 18.8664 27.75H10.6494ZM15.3698 23.975H18.292C18.8581 23.975 19.2743 23.8083 19.5408 23.475C19.8072 23.125 19.9404 22.7417 19.9404 22.325C19.9404 21.8917 19.7988 21.5167 19.5158 21.2C19.2327 20.8667 18.8248 20.7 18.292 20.7H15.3698V23.975ZM15.3698 17.025H18.0422C18.575 17.025 18.9663 16.875 19.2161 16.575C19.4658 16.275 19.5907 15.925 19.5907 15.525C19.5907 15.125 19.4658 14.775 19.2161 14.475C18.9663 14.175 18.575 14.025 18.0422 14.025H15.3698V17.025Z" fill="#FAF5ED" style="fill:#FAF5ED;fill:color(display-p3 0.9804 0.9608 0.9294);fill-opacity:1;"/>
</svg>
